%TF.GenerationSoftware,KiCad,Pcbnew,7.0.2*%
%TF.CreationDate,2023-04-25T18:44:45+02:00*%
%TF.ProjectId,em_schematic,656d5f73-6368-4656-9d61-7469632e6b69,rev?*%
%TF.SameCoordinates,Original*%
%TF.FileFunction,Soldermask,Bot*%
%TF.FilePolarity,Negative*%
%FSLAX46Y46*%
G04 Gerber Fmt 4.6, Leading zero omitted, Abs format (unit mm)*
G04 Created by KiCad (PCBNEW 7.0.2) date 2023-04-25 18:44:45*
%MOMM*%
%LPD*%
G01*
G04 APERTURE LIST*
%ADD10R,2.400000X2.400000*%
%ADD11C,2.400000*%
%ADD12C,2.000000*%
%ADD13R,1.700000X1.700000*%
%ADD14O,1.700000X1.700000*%
%ADD15C,3.200000*%
%ADD16C,2.300000*%
%ADD17R,2.300000X2.000000*%
G04 APERTURE END LIST*
D10*
%TO.C,C1*%
X109220000Y-114220000D03*
D11*
X109220000Y-109220000D03*
%TD*%
%TO.C,J6*%
X99060000Y-134620000D03*
D10*
X99060000Y-129620000D03*
%TD*%
D12*
%TO.C,RV1*%
X112800000Y-139620000D03*
X114300000Y-129620000D03*
%TD*%
D13*
%TO.C,J4*%
X119380000Y-93980000D03*
D14*
X119380000Y-91440000D03*
X119380000Y-88900000D03*
X119380000Y-86360000D03*
%TD*%
D13*
%TO.C,J5*%
X106680000Y-93980000D03*
D14*
X106680000Y-91440000D03*
X106680000Y-88900000D03*
X106680000Y-86360000D03*
%TD*%
D13*
%TO.C,J2*%
X149860000Y-73660000D03*
D14*
X149860000Y-76200000D03*
X149860000Y-78740000D03*
X149860000Y-81280000D03*
X149860000Y-83820000D03*
X149860000Y-86360000D03*
X149860000Y-88900000D03*
X149860000Y-91440000D03*
X149860000Y-93980000D03*
X149860000Y-96520000D03*
X149860000Y-99060000D03*
X149860000Y-101600000D03*
X149860000Y-104140000D03*
X149860000Y-106680000D03*
X149860000Y-109220000D03*
X149860000Y-111760000D03*
X149860000Y-114300000D03*
X149860000Y-116840000D03*
X149860000Y-119380000D03*
%TD*%
D13*
%TO.C,J1*%
X127000000Y-73660000D03*
D14*
X127000000Y-76200000D03*
X127000000Y-78740000D03*
X127000000Y-81280000D03*
X127000000Y-83820000D03*
X127000000Y-86360000D03*
X127000000Y-88900000D03*
X127000000Y-91440000D03*
X127000000Y-93980000D03*
X127000000Y-96520000D03*
X127000000Y-99060000D03*
X127000000Y-101600000D03*
X127000000Y-104140000D03*
X127000000Y-106680000D03*
X127000000Y-109220000D03*
X127000000Y-111760000D03*
X127000000Y-114300000D03*
X127000000Y-116840000D03*
X127000000Y-119380000D03*
%TD*%
D15*
%TO.C,REF\u002A\u002A*%
X96520000Y-76200000D03*
%TD*%
D12*
%TO.C,F1*%
X104140000Y-142240000D03*
X99060000Y-142230000D03*
%TD*%
D15*
%TO.C,REF\u002A\u002A*%
X157480000Y-152400000D03*
%TD*%
%TO.C,REF\u002A\u002A*%
X157480000Y-76200000D03*
%TD*%
D13*
%TO.C,J3*%
X99060000Y-93980000D03*
D14*
X99060000Y-91440000D03*
X99060000Y-88900000D03*
X99060000Y-86360000D03*
%TD*%
D16*
%TO.C,PS1*%
X154537500Y-144860000D03*
X154537500Y-129460000D03*
X125137500Y-139660000D03*
D17*
X125137500Y-134660000D03*
%TD*%
D15*
%TO.C,REF\u002A\u002A*%
X96520000Y-152400000D03*
%TD*%
M02*
