%TF.GenerationSoftware,KiCad,Pcbnew,7.0.2*%
%TF.CreationDate,2023-04-25T22:23:20+02:00*%
%TF.ProjectId,em_schematic,656d5f73-6368-4656-9d61-7469632e6b69,rev?*%
%TF.SameCoordinates,Original*%
%TF.FileFunction,Legend,Top*%
%TF.FilePolarity,Positive*%
%FSLAX46Y46*%
G04 Gerber Fmt 4.6, Leading zero omitted, Abs format (unit mm)*
G04 Created by KiCad (PCBNEW 7.0.2) date 2023-04-25 22:23:20*
%MOMM*%
%LPD*%
G01*
G04 APERTURE LIST*
%ADD10C,0.200000*%
%ADD11C,0.500000*%
%ADD12C,0.250000*%
%ADD13C,0.300000*%
%ADD14C,0.150000*%
%ADD15C,0.120000*%
G04 APERTURE END LIST*
D10*
X132080000Y-78740000D02*
X144780000Y-78740000D01*
X144780000Y-88900000D01*
X132080000Y-88900000D01*
X132080000Y-78740000D01*
D11*
X91440000Y-121920000D02*
X134620000Y-121920000D01*
X134620000Y-121920000D02*
X134620000Y-157480000D01*
D12*
X94789523Y-89406674D02*
X94456190Y-88930483D01*
X94218095Y-89406674D02*
X94218095Y-88406674D01*
X94218095Y-88406674D02*
X94599047Y-88406674D01*
X94599047Y-88406674D02*
X94694285Y-88454293D01*
X94694285Y-88454293D02*
X94741904Y-88501912D01*
X94741904Y-88501912D02*
X94789523Y-88597150D01*
X94789523Y-88597150D02*
X94789523Y-88740007D01*
X94789523Y-88740007D02*
X94741904Y-88835245D01*
X94741904Y-88835245D02*
X94694285Y-88882864D01*
X94694285Y-88882864D02*
X94599047Y-88930483D01*
X94599047Y-88930483D02*
X94218095Y-88930483D01*
X95122857Y-88406674D02*
X95789523Y-89406674D01*
X95789523Y-88406674D02*
X95122857Y-89406674D01*
D13*
X134977142Y-82850714D02*
X135477142Y-82850714D01*
X135691428Y-83636428D02*
X134977142Y-83636428D01*
X134977142Y-83636428D02*
X134977142Y-82136428D01*
X134977142Y-82136428D02*
X135691428Y-82136428D01*
X136262857Y-83565000D02*
X136477143Y-83636428D01*
X136477143Y-83636428D02*
X136834285Y-83636428D01*
X136834285Y-83636428D02*
X136977143Y-83565000D01*
X136977143Y-83565000D02*
X137048571Y-83493571D01*
X137048571Y-83493571D02*
X137120000Y-83350714D01*
X137120000Y-83350714D02*
X137120000Y-83207857D01*
X137120000Y-83207857D02*
X137048571Y-83065000D01*
X137048571Y-83065000D02*
X136977143Y-82993571D01*
X136977143Y-82993571D02*
X136834285Y-82922142D01*
X136834285Y-82922142D02*
X136548571Y-82850714D01*
X136548571Y-82850714D02*
X136405714Y-82779285D01*
X136405714Y-82779285D02*
X136334285Y-82707857D01*
X136334285Y-82707857D02*
X136262857Y-82565000D01*
X136262857Y-82565000D02*
X136262857Y-82422142D01*
X136262857Y-82422142D02*
X136334285Y-82279285D01*
X136334285Y-82279285D02*
X136405714Y-82207857D01*
X136405714Y-82207857D02*
X136548571Y-82136428D01*
X136548571Y-82136428D02*
X136905714Y-82136428D01*
X136905714Y-82136428D02*
X137120000Y-82207857D01*
X137762856Y-83636428D02*
X137762856Y-82136428D01*
X137762856Y-82136428D02*
X138334285Y-82136428D01*
X138334285Y-82136428D02*
X138477142Y-82207857D01*
X138477142Y-82207857D02*
X138548571Y-82279285D01*
X138548571Y-82279285D02*
X138619999Y-82422142D01*
X138619999Y-82422142D02*
X138619999Y-82636428D01*
X138619999Y-82636428D02*
X138548571Y-82779285D01*
X138548571Y-82779285D02*
X138477142Y-82850714D01*
X138477142Y-82850714D02*
X138334285Y-82922142D01*
X138334285Y-82922142D02*
X137762856Y-82922142D01*
X139119999Y-82136428D02*
X140048571Y-82136428D01*
X140048571Y-82136428D02*
X139548571Y-82707857D01*
X139548571Y-82707857D02*
X139762856Y-82707857D01*
X139762856Y-82707857D02*
X139905714Y-82779285D01*
X139905714Y-82779285D02*
X139977142Y-82850714D01*
X139977142Y-82850714D02*
X140048571Y-82993571D01*
X140048571Y-82993571D02*
X140048571Y-83350714D01*
X140048571Y-83350714D02*
X139977142Y-83493571D01*
X139977142Y-83493571D02*
X139905714Y-83565000D01*
X139905714Y-83565000D02*
X139762856Y-83636428D01*
X139762856Y-83636428D02*
X139334285Y-83636428D01*
X139334285Y-83636428D02*
X139191428Y-83565000D01*
X139191428Y-83565000D02*
X139119999Y-83493571D01*
X140619999Y-82279285D02*
X140691427Y-82207857D01*
X140691427Y-82207857D02*
X140834285Y-82136428D01*
X140834285Y-82136428D02*
X141191427Y-82136428D01*
X141191427Y-82136428D02*
X141334285Y-82207857D01*
X141334285Y-82207857D02*
X141405713Y-82279285D01*
X141405713Y-82279285D02*
X141477142Y-82422142D01*
X141477142Y-82422142D02*
X141477142Y-82565000D01*
X141477142Y-82565000D02*
X141405713Y-82779285D01*
X141405713Y-82779285D02*
X140548570Y-83636428D01*
X140548570Y-83636428D02*
X141477142Y-83636428D01*
D12*
X94694285Y-93530186D02*
X94218095Y-93530186D01*
X94218095Y-93530186D02*
X94170476Y-94006376D01*
X94170476Y-94006376D02*
X94218095Y-93958757D01*
X94218095Y-93958757D02*
X94313333Y-93911138D01*
X94313333Y-93911138D02*
X94551428Y-93911138D01*
X94551428Y-93911138D02*
X94646666Y-93958757D01*
X94646666Y-93958757D02*
X94694285Y-94006376D01*
X94694285Y-94006376D02*
X94741904Y-94101614D01*
X94741904Y-94101614D02*
X94741904Y-94339709D01*
X94741904Y-94339709D02*
X94694285Y-94434947D01*
X94694285Y-94434947D02*
X94646666Y-94482567D01*
X94646666Y-94482567D02*
X94551428Y-94530186D01*
X94551428Y-94530186D02*
X94313333Y-94530186D01*
X94313333Y-94530186D02*
X94218095Y-94482567D01*
X94218095Y-94482567D02*
X94170476Y-94434947D01*
X95027619Y-93530186D02*
X95360952Y-94530186D01*
X95360952Y-94530186D02*
X95694285Y-93530186D01*
D10*
X101942857Y-150551142D02*
X102028571Y-150465428D01*
X102028571Y-150465428D02*
X102200000Y-150379714D01*
X102200000Y-150379714D02*
X102628571Y-150379714D01*
X102628571Y-150379714D02*
X102800000Y-150465428D01*
X102800000Y-150465428D02*
X102885714Y-150551142D01*
X102885714Y-150551142D02*
X102971428Y-150722571D01*
X102971428Y-150722571D02*
X102971428Y-150894000D01*
X102971428Y-150894000D02*
X102885714Y-151151142D01*
X102885714Y-151151142D02*
X101857142Y-152179714D01*
X101857142Y-152179714D02*
X102971428Y-152179714D01*
X103571428Y-150379714D02*
X104685714Y-150379714D01*
X104685714Y-150379714D02*
X104085714Y-151065428D01*
X104085714Y-151065428D02*
X104342857Y-151065428D01*
X104342857Y-151065428D02*
X104514286Y-151151142D01*
X104514286Y-151151142D02*
X104600000Y-151236857D01*
X104600000Y-151236857D02*
X104685714Y-151408285D01*
X104685714Y-151408285D02*
X104685714Y-151836857D01*
X104685714Y-151836857D02*
X104600000Y-152008285D01*
X104600000Y-152008285D02*
X104514286Y-152094000D01*
X104514286Y-152094000D02*
X104342857Y-152179714D01*
X104342857Y-152179714D02*
X103828571Y-152179714D01*
X103828571Y-152179714D02*
X103657143Y-152094000D01*
X103657143Y-152094000D02*
X103571428Y-152008285D01*
X105800000Y-150379714D02*
X105971429Y-150379714D01*
X105971429Y-150379714D02*
X106142857Y-150465428D01*
X106142857Y-150465428D02*
X106228572Y-150551142D01*
X106228572Y-150551142D02*
X106314286Y-150722571D01*
X106314286Y-150722571D02*
X106400000Y-151065428D01*
X106400000Y-151065428D02*
X106400000Y-151494000D01*
X106400000Y-151494000D02*
X106314286Y-151836857D01*
X106314286Y-151836857D02*
X106228572Y-152008285D01*
X106228572Y-152008285D02*
X106142857Y-152094000D01*
X106142857Y-152094000D02*
X105971429Y-152179714D01*
X105971429Y-152179714D02*
X105800000Y-152179714D01*
X105800000Y-152179714D02*
X105628572Y-152094000D01*
X105628572Y-152094000D02*
X105542857Y-152008285D01*
X105542857Y-152008285D02*
X105457143Y-151836857D01*
X105457143Y-151836857D02*
X105371429Y-151494000D01*
X105371429Y-151494000D02*
X105371429Y-151065428D01*
X105371429Y-151065428D02*
X105457143Y-150722571D01*
X105457143Y-150722571D02*
X105542857Y-150551142D01*
X105542857Y-150551142D02*
X105628572Y-150465428D01*
X105628572Y-150465428D02*
X105800000Y-150379714D01*
X106914286Y-150379714D02*
X107514286Y-152179714D01*
X107514286Y-152179714D02*
X108114286Y-150379714D01*
X110085715Y-152179714D02*
X110085715Y-150379714D01*
X110085715Y-150379714D02*
X110514286Y-150379714D01*
X110514286Y-150379714D02*
X110771429Y-150465428D01*
X110771429Y-150465428D02*
X110942858Y-150636857D01*
X110942858Y-150636857D02*
X111028572Y-150808285D01*
X111028572Y-150808285D02*
X111114286Y-151151142D01*
X111114286Y-151151142D02*
X111114286Y-151408285D01*
X111114286Y-151408285D02*
X111028572Y-151751142D01*
X111028572Y-151751142D02*
X110942858Y-151922571D01*
X110942858Y-151922571D02*
X110771429Y-152094000D01*
X110771429Y-152094000D02*
X110514286Y-152179714D01*
X110514286Y-152179714D02*
X110085715Y-152179714D01*
X112228572Y-150379714D02*
X112571429Y-150379714D01*
X112571429Y-150379714D02*
X112742858Y-150465428D01*
X112742858Y-150465428D02*
X112914286Y-150636857D01*
X112914286Y-150636857D02*
X113000001Y-150979714D01*
X113000001Y-150979714D02*
X113000001Y-151579714D01*
X113000001Y-151579714D02*
X112914286Y-151922571D01*
X112914286Y-151922571D02*
X112742858Y-152094000D01*
X112742858Y-152094000D02*
X112571429Y-152179714D01*
X112571429Y-152179714D02*
X112228572Y-152179714D01*
X112228572Y-152179714D02*
X112057144Y-152094000D01*
X112057144Y-152094000D02*
X111885715Y-151922571D01*
X111885715Y-151922571D02*
X111800001Y-151579714D01*
X111800001Y-151579714D02*
X111800001Y-150979714D01*
X111800001Y-150979714D02*
X111885715Y-150636857D01*
X111885715Y-150636857D02*
X112057144Y-150465428D01*
X112057144Y-150465428D02*
X112228572Y-150379714D01*
X115142858Y-152179714D02*
X115142858Y-150379714D01*
X115142858Y-150379714D02*
X116171429Y-152179714D01*
X116171429Y-152179714D02*
X116171429Y-150379714D01*
X117371429Y-150379714D02*
X117714286Y-150379714D01*
X117714286Y-150379714D02*
X117885715Y-150465428D01*
X117885715Y-150465428D02*
X118057143Y-150636857D01*
X118057143Y-150636857D02*
X118142858Y-150979714D01*
X118142858Y-150979714D02*
X118142858Y-151579714D01*
X118142858Y-151579714D02*
X118057143Y-151922571D01*
X118057143Y-151922571D02*
X117885715Y-152094000D01*
X117885715Y-152094000D02*
X117714286Y-152179714D01*
X117714286Y-152179714D02*
X117371429Y-152179714D01*
X117371429Y-152179714D02*
X117200001Y-152094000D01*
X117200001Y-152094000D02*
X117028572Y-151922571D01*
X117028572Y-151922571D02*
X116942858Y-151579714D01*
X116942858Y-151579714D02*
X116942858Y-150979714D01*
X116942858Y-150979714D02*
X117028572Y-150636857D01*
X117028572Y-150636857D02*
X117200001Y-150465428D01*
X117200001Y-150465428D02*
X117371429Y-150379714D01*
X118657143Y-150379714D02*
X119685715Y-150379714D01*
X119171429Y-152179714D02*
X119171429Y-150379714D01*
X121400001Y-150379714D02*
X122428573Y-150379714D01*
X121914287Y-152179714D02*
X121914287Y-150379714D01*
X123371430Y-150379714D02*
X123714287Y-150379714D01*
X123714287Y-150379714D02*
X123885716Y-150465428D01*
X123885716Y-150465428D02*
X124057144Y-150636857D01*
X124057144Y-150636857D02*
X124142859Y-150979714D01*
X124142859Y-150979714D02*
X124142859Y-151579714D01*
X124142859Y-151579714D02*
X124057144Y-151922571D01*
X124057144Y-151922571D02*
X123885716Y-152094000D01*
X123885716Y-152094000D02*
X123714287Y-152179714D01*
X123714287Y-152179714D02*
X123371430Y-152179714D01*
X123371430Y-152179714D02*
X123200002Y-152094000D01*
X123200002Y-152094000D02*
X123028573Y-151922571D01*
X123028573Y-151922571D02*
X122942859Y-151579714D01*
X122942859Y-151579714D02*
X122942859Y-150979714D01*
X122942859Y-150979714D02*
X123028573Y-150636857D01*
X123028573Y-150636857D02*
X123200002Y-150465428D01*
X123200002Y-150465428D02*
X123371430Y-150379714D01*
X124914287Y-150379714D02*
X124914287Y-151836857D01*
X124914287Y-151836857D02*
X125000001Y-152008285D01*
X125000001Y-152008285D02*
X125085716Y-152094000D01*
X125085716Y-152094000D02*
X125257144Y-152179714D01*
X125257144Y-152179714D02*
X125600001Y-152179714D01*
X125600001Y-152179714D02*
X125771430Y-152094000D01*
X125771430Y-152094000D02*
X125857144Y-152008285D01*
X125857144Y-152008285D02*
X125942858Y-151836857D01*
X125942858Y-151836857D02*
X125942858Y-150379714D01*
X127828572Y-152008285D02*
X127742858Y-152094000D01*
X127742858Y-152094000D02*
X127485715Y-152179714D01*
X127485715Y-152179714D02*
X127314287Y-152179714D01*
X127314287Y-152179714D02*
X127057144Y-152094000D01*
X127057144Y-152094000D02*
X126885715Y-151922571D01*
X126885715Y-151922571D02*
X126800001Y-151751142D01*
X126800001Y-151751142D02*
X126714287Y-151408285D01*
X126714287Y-151408285D02*
X126714287Y-151151142D01*
X126714287Y-151151142D02*
X126800001Y-150808285D01*
X126800001Y-150808285D02*
X126885715Y-150636857D01*
X126885715Y-150636857D02*
X127057144Y-150465428D01*
X127057144Y-150465428D02*
X127314287Y-150379714D01*
X127314287Y-150379714D02*
X127485715Y-150379714D01*
X127485715Y-150379714D02*
X127742858Y-150465428D01*
X127742858Y-150465428D02*
X127828572Y-150551142D01*
X128600001Y-152179714D02*
X128600001Y-150379714D01*
X128600001Y-151236857D02*
X129628572Y-151236857D01*
X129628572Y-152179714D02*
X129628572Y-150379714D01*
X130485715Y-152008285D02*
X130571429Y-152094000D01*
X130571429Y-152094000D02*
X130485715Y-152179714D01*
X130485715Y-152179714D02*
X130400001Y-152094000D01*
X130400001Y-152094000D02*
X130485715Y-152008285D01*
X130485715Y-152008285D02*
X130485715Y-152179714D01*
X130485715Y-151494000D02*
X130400001Y-150465428D01*
X130400001Y-150465428D02*
X130485715Y-150379714D01*
X130485715Y-150379714D02*
X130571429Y-150465428D01*
X130571429Y-150465428D02*
X130485715Y-151494000D01*
X130485715Y-151494000D02*
X130485715Y-150379714D01*
D14*
X104378095Y-76077619D02*
X104378095Y-75077619D01*
X104378095Y-75077619D02*
X104759047Y-75077619D01*
X104759047Y-75077619D02*
X104854285Y-75125238D01*
X104854285Y-75125238D02*
X104901904Y-75172857D01*
X104901904Y-75172857D02*
X104949523Y-75268095D01*
X104949523Y-75268095D02*
X104949523Y-75410952D01*
X104949523Y-75410952D02*
X104901904Y-75506190D01*
X104901904Y-75506190D02*
X104854285Y-75553809D01*
X104854285Y-75553809D02*
X104759047Y-75601428D01*
X104759047Y-75601428D02*
X104378095Y-75601428D01*
X105378095Y-76077619D02*
X105378095Y-75077619D01*
X105378095Y-75077619D02*
X105759047Y-75077619D01*
X105759047Y-75077619D02*
X105854285Y-75125238D01*
X105854285Y-75125238D02*
X105901904Y-75172857D01*
X105901904Y-75172857D02*
X105949523Y-75268095D01*
X105949523Y-75268095D02*
X105949523Y-75410952D01*
X105949523Y-75410952D02*
X105901904Y-75506190D01*
X105901904Y-75506190D02*
X105854285Y-75553809D01*
X105854285Y-75553809D02*
X105759047Y-75601428D01*
X105759047Y-75601428D02*
X105378095Y-75601428D01*
X107140000Y-75696666D02*
X107901905Y-75696666D01*
X109044762Y-75410952D02*
X109282857Y-76077619D01*
X109282857Y-76077619D02*
X109520952Y-75410952D01*
X110282857Y-76030000D02*
X110187619Y-76077619D01*
X110187619Y-76077619D02*
X109997143Y-76077619D01*
X109997143Y-76077619D02*
X109901905Y-76030000D01*
X109901905Y-76030000D02*
X109854286Y-75934761D01*
X109854286Y-75934761D02*
X109854286Y-75553809D01*
X109854286Y-75553809D02*
X109901905Y-75458571D01*
X109901905Y-75458571D02*
X109997143Y-75410952D01*
X109997143Y-75410952D02*
X110187619Y-75410952D01*
X110187619Y-75410952D02*
X110282857Y-75458571D01*
X110282857Y-75458571D02*
X110330476Y-75553809D01*
X110330476Y-75553809D02*
X110330476Y-75649047D01*
X110330476Y-75649047D02*
X109854286Y-75744285D01*
X110759048Y-76077619D02*
X110759048Y-75410952D01*
X110759048Y-75601428D02*
X110806667Y-75506190D01*
X110806667Y-75506190D02*
X110854286Y-75458571D01*
X110854286Y-75458571D02*
X110949524Y-75410952D01*
X110949524Y-75410952D02*
X111044762Y-75410952D01*
X112663810Y-76077619D02*
X112092382Y-76077619D01*
X112378096Y-76077619D02*
X112378096Y-75077619D01*
X112378096Y-75077619D02*
X112282858Y-75220476D01*
X112282858Y-75220476D02*
X112187620Y-75315714D01*
X112187620Y-75315714D02*
X112092382Y-75363333D01*
X113092382Y-75982380D02*
X113140001Y-76030000D01*
X113140001Y-76030000D02*
X113092382Y-76077619D01*
X113092382Y-76077619D02*
X113044763Y-76030000D01*
X113044763Y-76030000D02*
X113092382Y-75982380D01*
X113092382Y-75982380D02*
X113092382Y-76077619D01*
X113759048Y-75077619D02*
X113854286Y-75077619D01*
X113854286Y-75077619D02*
X113949524Y-75125238D01*
X113949524Y-75125238D02*
X113997143Y-75172857D01*
X113997143Y-75172857D02*
X114044762Y-75268095D01*
X114044762Y-75268095D02*
X114092381Y-75458571D01*
X114092381Y-75458571D02*
X114092381Y-75696666D01*
X114092381Y-75696666D02*
X114044762Y-75887142D01*
X114044762Y-75887142D02*
X113997143Y-75982380D01*
X113997143Y-75982380D02*
X113949524Y-76030000D01*
X113949524Y-76030000D02*
X113854286Y-76077619D01*
X113854286Y-76077619D02*
X113759048Y-76077619D01*
X113759048Y-76077619D02*
X113663810Y-76030000D01*
X113663810Y-76030000D02*
X113616191Y-75982380D01*
X113616191Y-75982380D02*
X113568572Y-75887142D01*
X113568572Y-75887142D02*
X113520953Y-75696666D01*
X113520953Y-75696666D02*
X113520953Y-75458571D01*
X113520953Y-75458571D02*
X113568572Y-75268095D01*
X113568572Y-75268095D02*
X113616191Y-75172857D01*
X113616191Y-75172857D02*
X113663810Y-75125238D01*
X113663810Y-75125238D02*
X113759048Y-75077619D01*
D12*
X94427376Y-85892538D02*
X94332138Y-85844919D01*
X94332138Y-85844919D02*
X94189281Y-85844919D01*
X94189281Y-85844919D02*
X94046424Y-85892538D01*
X94046424Y-85892538D02*
X93951186Y-85987776D01*
X93951186Y-85987776D02*
X93903567Y-86083014D01*
X93903567Y-86083014D02*
X93855948Y-86273490D01*
X93855948Y-86273490D02*
X93855948Y-86416347D01*
X93855948Y-86416347D02*
X93903567Y-86606823D01*
X93903567Y-86606823D02*
X93951186Y-86702061D01*
X93951186Y-86702061D02*
X94046424Y-86797300D01*
X94046424Y-86797300D02*
X94189281Y-86844919D01*
X94189281Y-86844919D02*
X94284519Y-86844919D01*
X94284519Y-86844919D02*
X94427376Y-86797300D01*
X94427376Y-86797300D02*
X94474995Y-86749680D01*
X94474995Y-86749680D02*
X94474995Y-86416347D01*
X94474995Y-86416347D02*
X94284519Y-86416347D01*
X94903567Y-86844919D02*
X94903567Y-85844919D01*
X94903567Y-85844919D02*
X95474995Y-86844919D01*
X95474995Y-86844919D02*
X95474995Y-85844919D01*
X95951186Y-86844919D02*
X95951186Y-85844919D01*
X95951186Y-85844919D02*
X96189281Y-85844919D01*
X96189281Y-85844919D02*
X96332138Y-85892538D01*
X96332138Y-85892538D02*
X96427376Y-85987776D01*
X96427376Y-85987776D02*
X96474995Y-86083014D01*
X96474995Y-86083014D02*
X96522614Y-86273490D01*
X96522614Y-86273490D02*
X96522614Y-86416347D01*
X96522614Y-86416347D02*
X96474995Y-86606823D01*
X96474995Y-86606823D02*
X96427376Y-86702061D01*
X96427376Y-86702061D02*
X96332138Y-86797300D01*
X96332138Y-86797300D02*
X96189281Y-86844919D01*
X96189281Y-86844919D02*
X95951186Y-86844919D01*
X94075238Y-91041623D02*
X94646666Y-91041623D01*
X94360952Y-92041623D02*
X94360952Y-91041623D01*
X94884762Y-91041623D02*
X95551428Y-92041623D01*
X95551428Y-91041623D02*
X94884762Y-92041623D01*
D14*
%TO.C,SW1*%
X153645000Y-97853332D02*
X153692619Y-97710475D01*
X153692619Y-97710475D02*
X153692619Y-97472380D01*
X153692619Y-97472380D02*
X153645000Y-97377142D01*
X153645000Y-97377142D02*
X153597380Y-97329523D01*
X153597380Y-97329523D02*
X153502142Y-97281904D01*
X153502142Y-97281904D02*
X153406904Y-97281904D01*
X153406904Y-97281904D02*
X153311666Y-97329523D01*
X153311666Y-97329523D02*
X153264047Y-97377142D01*
X153264047Y-97377142D02*
X153216428Y-97472380D01*
X153216428Y-97472380D02*
X153168809Y-97662856D01*
X153168809Y-97662856D02*
X153121190Y-97758094D01*
X153121190Y-97758094D02*
X153073571Y-97805713D01*
X153073571Y-97805713D02*
X152978333Y-97853332D01*
X152978333Y-97853332D02*
X152883095Y-97853332D01*
X152883095Y-97853332D02*
X152787857Y-97805713D01*
X152787857Y-97805713D02*
X152740238Y-97758094D01*
X152740238Y-97758094D02*
X152692619Y-97662856D01*
X152692619Y-97662856D02*
X152692619Y-97424761D01*
X152692619Y-97424761D02*
X152740238Y-97281904D01*
X152692619Y-96948570D02*
X153692619Y-96710475D01*
X153692619Y-96710475D02*
X152978333Y-96519999D01*
X152978333Y-96519999D02*
X153692619Y-96329523D01*
X153692619Y-96329523D02*
X152692619Y-96091428D01*
X153692619Y-95186666D02*
X153692619Y-95758094D01*
X153692619Y-95472380D02*
X152692619Y-95472380D01*
X152692619Y-95472380D02*
X152835476Y-95567618D01*
X152835476Y-95567618D02*
X152930714Y-95662856D01*
X152930714Y-95662856D02*
X152978333Y-95758094D01*
%TO.C,J6*%
X98726666Y-123922619D02*
X98726666Y-124636904D01*
X98726666Y-124636904D02*
X98679047Y-124779761D01*
X98679047Y-124779761D02*
X98583809Y-124875000D01*
X98583809Y-124875000D02*
X98440952Y-124922619D01*
X98440952Y-124922619D02*
X98345714Y-124922619D01*
X99631428Y-123922619D02*
X99440952Y-123922619D01*
X99440952Y-123922619D02*
X99345714Y-123970238D01*
X99345714Y-123970238D02*
X99298095Y-124017857D01*
X99298095Y-124017857D02*
X99202857Y-124160714D01*
X99202857Y-124160714D02*
X99155238Y-124351190D01*
X99155238Y-124351190D02*
X99155238Y-124732142D01*
X99155238Y-124732142D02*
X99202857Y-124827380D01*
X99202857Y-124827380D02*
X99250476Y-124875000D01*
X99250476Y-124875000D02*
X99345714Y-124922619D01*
X99345714Y-124922619D02*
X99536190Y-124922619D01*
X99536190Y-124922619D02*
X99631428Y-124875000D01*
X99631428Y-124875000D02*
X99679047Y-124827380D01*
X99679047Y-124827380D02*
X99726666Y-124732142D01*
X99726666Y-124732142D02*
X99726666Y-124494047D01*
X99726666Y-124494047D02*
X99679047Y-124398809D01*
X99679047Y-124398809D02*
X99631428Y-124351190D01*
X99631428Y-124351190D02*
X99536190Y-124303571D01*
X99536190Y-124303571D02*
X99345714Y-124303571D01*
X99345714Y-124303571D02*
X99250476Y-124351190D01*
X99250476Y-124351190D02*
X99202857Y-124398809D01*
X99202857Y-124398809D02*
X99155238Y-124494047D01*
%TO.C,RV1*%
X113704761Y-147782619D02*
X113371428Y-147306428D01*
X113133333Y-147782619D02*
X113133333Y-146782619D01*
X113133333Y-146782619D02*
X113514285Y-146782619D01*
X113514285Y-146782619D02*
X113609523Y-146830238D01*
X113609523Y-146830238D02*
X113657142Y-146877857D01*
X113657142Y-146877857D02*
X113704761Y-146973095D01*
X113704761Y-146973095D02*
X113704761Y-147115952D01*
X113704761Y-147115952D02*
X113657142Y-147211190D01*
X113657142Y-147211190D02*
X113609523Y-147258809D01*
X113609523Y-147258809D02*
X113514285Y-147306428D01*
X113514285Y-147306428D02*
X113133333Y-147306428D01*
X113990476Y-146782619D02*
X114323809Y-147782619D01*
X114323809Y-147782619D02*
X114657142Y-146782619D01*
X115514285Y-147782619D02*
X114942857Y-147782619D01*
X115228571Y-147782619D02*
X115228571Y-146782619D01*
X115228571Y-146782619D02*
X115133333Y-146925476D01*
X115133333Y-146925476D02*
X115038095Y-147020714D01*
X115038095Y-147020714D02*
X114942857Y-147068333D01*
%TO.C,J4*%
X119046666Y-83282619D02*
X119046666Y-83996904D01*
X119046666Y-83996904D02*
X118999047Y-84139761D01*
X118999047Y-84139761D02*
X118903809Y-84235000D01*
X118903809Y-84235000D02*
X118760952Y-84282619D01*
X118760952Y-84282619D02*
X118665714Y-84282619D01*
X119951428Y-83615952D02*
X119951428Y-84282619D01*
X119713333Y-83235000D02*
X119475238Y-83949285D01*
X119475238Y-83949285D02*
X120094285Y-83949285D01*
%TO.C,J5*%
X106346666Y-83282619D02*
X106346666Y-83996904D01*
X106346666Y-83996904D02*
X106299047Y-84139761D01*
X106299047Y-84139761D02*
X106203809Y-84235000D01*
X106203809Y-84235000D02*
X106060952Y-84282619D01*
X106060952Y-84282619D02*
X105965714Y-84282619D01*
X107299047Y-83282619D02*
X106822857Y-83282619D01*
X106822857Y-83282619D02*
X106775238Y-83758809D01*
X106775238Y-83758809D02*
X106822857Y-83711190D01*
X106822857Y-83711190D02*
X106918095Y-83663571D01*
X106918095Y-83663571D02*
X107156190Y-83663571D01*
X107156190Y-83663571D02*
X107251428Y-83711190D01*
X107251428Y-83711190D02*
X107299047Y-83758809D01*
X107299047Y-83758809D02*
X107346666Y-83854047D01*
X107346666Y-83854047D02*
X107346666Y-84092142D01*
X107346666Y-84092142D02*
X107299047Y-84187380D01*
X107299047Y-84187380D02*
X107251428Y-84235000D01*
X107251428Y-84235000D02*
X107156190Y-84282619D01*
X107156190Y-84282619D02*
X106918095Y-84282619D01*
X106918095Y-84282619D02*
X106822857Y-84235000D01*
X106822857Y-84235000D02*
X106775238Y-84187380D01*
%TO.C,J2*%
X149526666Y-121382619D02*
X149526666Y-122096904D01*
X149526666Y-122096904D02*
X149479047Y-122239761D01*
X149479047Y-122239761D02*
X149383809Y-122335000D01*
X149383809Y-122335000D02*
X149240952Y-122382619D01*
X149240952Y-122382619D02*
X149145714Y-122382619D01*
X149955238Y-121477857D02*
X150002857Y-121430238D01*
X150002857Y-121430238D02*
X150098095Y-121382619D01*
X150098095Y-121382619D02*
X150336190Y-121382619D01*
X150336190Y-121382619D02*
X150431428Y-121430238D01*
X150431428Y-121430238D02*
X150479047Y-121477857D01*
X150479047Y-121477857D02*
X150526666Y-121573095D01*
X150526666Y-121573095D02*
X150526666Y-121668333D01*
X150526666Y-121668333D02*
X150479047Y-121811190D01*
X150479047Y-121811190D02*
X149907619Y-122382619D01*
X149907619Y-122382619D02*
X150526666Y-122382619D01*
%TO.C,J1*%
X126666666Y-121382619D02*
X126666666Y-122096904D01*
X126666666Y-122096904D02*
X126619047Y-122239761D01*
X126619047Y-122239761D02*
X126523809Y-122335000D01*
X126523809Y-122335000D02*
X126380952Y-122382619D01*
X126380952Y-122382619D02*
X126285714Y-122382619D01*
X127666666Y-122382619D02*
X127095238Y-122382619D01*
X127380952Y-122382619D02*
X127380952Y-121382619D01*
X127380952Y-121382619D02*
X127285714Y-121525476D01*
X127285714Y-121525476D02*
X127190476Y-121620714D01*
X127190476Y-121620714D02*
X127095238Y-121668333D01*
%TO.C,C1*%
X109053333Y-119747380D02*
X109005714Y-119795000D01*
X109005714Y-119795000D02*
X108862857Y-119842619D01*
X108862857Y-119842619D02*
X108767619Y-119842619D01*
X108767619Y-119842619D02*
X108624762Y-119795000D01*
X108624762Y-119795000D02*
X108529524Y-119699761D01*
X108529524Y-119699761D02*
X108481905Y-119604523D01*
X108481905Y-119604523D02*
X108434286Y-119414047D01*
X108434286Y-119414047D02*
X108434286Y-119271190D01*
X108434286Y-119271190D02*
X108481905Y-119080714D01*
X108481905Y-119080714D02*
X108529524Y-118985476D01*
X108529524Y-118985476D02*
X108624762Y-118890238D01*
X108624762Y-118890238D02*
X108767619Y-118842619D01*
X108767619Y-118842619D02*
X108862857Y-118842619D01*
X108862857Y-118842619D02*
X109005714Y-118890238D01*
X109005714Y-118890238D02*
X109053333Y-118937857D01*
X110005714Y-119842619D02*
X109434286Y-119842619D01*
X109720000Y-119842619D02*
X109720000Y-118842619D01*
X109720000Y-118842619D02*
X109624762Y-118985476D01*
X109624762Y-118985476D02*
X109529524Y-119080714D01*
X109529524Y-119080714D02*
X109434286Y-119128333D01*
%TO.C,F1*%
X101376666Y-147258809D02*
X101043333Y-147258809D01*
X101043333Y-147782619D02*
X101043333Y-146782619D01*
X101043333Y-146782619D02*
X101519523Y-146782619D01*
X102424285Y-147782619D02*
X101852857Y-147782619D01*
X102138571Y-147782619D02*
X102138571Y-146782619D01*
X102138571Y-146782619D02*
X102043333Y-146925476D01*
X102043333Y-146925476D02*
X101948095Y-147020714D01*
X101948095Y-147020714D02*
X101852857Y-147068333D01*
%TO.C,J3*%
X98726666Y-83282619D02*
X98726666Y-83996904D01*
X98726666Y-83996904D02*
X98679047Y-84139761D01*
X98679047Y-84139761D02*
X98583809Y-84235000D01*
X98583809Y-84235000D02*
X98440952Y-84282619D01*
X98440952Y-84282619D02*
X98345714Y-84282619D01*
X99107619Y-83282619D02*
X99726666Y-83282619D01*
X99726666Y-83282619D02*
X99393333Y-83663571D01*
X99393333Y-83663571D02*
X99536190Y-83663571D01*
X99536190Y-83663571D02*
X99631428Y-83711190D01*
X99631428Y-83711190D02*
X99679047Y-83758809D01*
X99679047Y-83758809D02*
X99726666Y-83854047D01*
X99726666Y-83854047D02*
X99726666Y-84092142D01*
X99726666Y-84092142D02*
X99679047Y-84187380D01*
X99679047Y-84187380D02*
X99631428Y-84235000D01*
X99631428Y-84235000D02*
X99536190Y-84282619D01*
X99536190Y-84282619D02*
X99250476Y-84282619D01*
X99250476Y-84282619D02*
X99155238Y-84235000D01*
X99155238Y-84235000D02*
X99107619Y-84187380D01*
%TO.C,PS1*%
X138485714Y-150322619D02*
X138485714Y-149322619D01*
X138485714Y-149322619D02*
X138866666Y-149322619D01*
X138866666Y-149322619D02*
X138961904Y-149370238D01*
X138961904Y-149370238D02*
X139009523Y-149417857D01*
X139009523Y-149417857D02*
X139057142Y-149513095D01*
X139057142Y-149513095D02*
X139057142Y-149655952D01*
X139057142Y-149655952D02*
X139009523Y-149751190D01*
X139009523Y-149751190D02*
X138961904Y-149798809D01*
X138961904Y-149798809D02*
X138866666Y-149846428D01*
X138866666Y-149846428D02*
X138485714Y-149846428D01*
X139438095Y-150275000D02*
X139580952Y-150322619D01*
X139580952Y-150322619D02*
X139819047Y-150322619D01*
X139819047Y-150322619D02*
X139914285Y-150275000D01*
X139914285Y-150275000D02*
X139961904Y-150227380D01*
X139961904Y-150227380D02*
X140009523Y-150132142D01*
X140009523Y-150132142D02*
X140009523Y-150036904D01*
X140009523Y-150036904D02*
X139961904Y-149941666D01*
X139961904Y-149941666D02*
X139914285Y-149894047D01*
X139914285Y-149894047D02*
X139819047Y-149846428D01*
X139819047Y-149846428D02*
X139628571Y-149798809D01*
X139628571Y-149798809D02*
X139533333Y-149751190D01*
X139533333Y-149751190D02*
X139485714Y-149703571D01*
X139485714Y-149703571D02*
X139438095Y-149608333D01*
X139438095Y-149608333D02*
X139438095Y-149513095D01*
X139438095Y-149513095D02*
X139485714Y-149417857D01*
X139485714Y-149417857D02*
X139533333Y-149370238D01*
X139533333Y-149370238D02*
X139628571Y-149322619D01*
X139628571Y-149322619D02*
X139866666Y-149322619D01*
X139866666Y-149322619D02*
X140009523Y-149370238D01*
X140961904Y-150322619D02*
X140390476Y-150322619D01*
X140676190Y-150322619D02*
X140676190Y-149322619D01*
X140676190Y-149322619D02*
X140580952Y-149465476D01*
X140580952Y-149465476D02*
X140485714Y-149560714D01*
X140485714Y-149560714D02*
X140390476Y-149608333D01*
D15*
%TO.C,SW1*%
X154230000Y-94270000D02*
X154230000Y-98770000D01*
X160730000Y-98770000D02*
X160730000Y-94270000D01*
X158230000Y-93020000D02*
X156730000Y-93020000D01*
X156730000Y-100020000D02*
X158230000Y-100020000D01*
%TO.C,J6*%
X94100000Y-126820000D02*
X93360000Y-126820000D01*
X93360000Y-126820000D02*
X93360000Y-127320000D01*
X103920000Y-127060000D02*
X93600000Y-127060000D01*
X103920000Y-127060000D02*
X103920000Y-137180000D01*
X95260000Y-127060000D02*
X95260000Y-137180000D01*
X94160000Y-127060000D02*
X94160000Y-137180000D01*
X93600000Y-127060000D02*
X93600000Y-137180000D01*
X103920000Y-137180000D02*
X93600000Y-137180000D01*
X99668000Y-128188000D02*
G75*
G03*
X98452258Y-128187891I-608000J-1432000D01*
G01*
X100492000Y-130228000D02*
G75*
G03*
X100492109Y-129012258I-1432000J608000D01*
G01*
X97628001Y-129012000D02*
G75*
G03*
X97504508Y-129647011I1431987J-607998D01*
G01*
X97505001Y-129620000D02*
G75*
G03*
X97628616Y-130227587I1554999J0D01*
G01*
X98452000Y-131052000D02*
G75*
G03*
X99667742Y-131052109I607999J1432003D01*
G01*
X100615000Y-134620000D02*
G75*
G03*
X100615000Y-134620000I-1555000J0D01*
G01*
D14*
%TO.C,RV1*%
X115700000Y-123870000D02*
X111400000Y-123870000D01*
X115700000Y-123870000D02*
X115700000Y-145370000D01*
X111400000Y-123870000D02*
X111400000Y-145370000D01*
X115700000Y-145370000D02*
X111400000Y-145370000D01*
D15*
%TO.C,J4*%
X120710000Y-95310000D02*
X119380000Y-95310000D01*
X120710000Y-93980000D02*
X120710000Y-95310000D01*
X120710000Y-92710000D02*
X120710000Y-85030000D01*
X120710000Y-92710000D02*
X118050000Y-92710000D01*
X120710000Y-85030000D02*
X118050000Y-85030000D01*
X118050000Y-92710000D02*
X118050000Y-85030000D01*
%TO.C,J5*%
X108010000Y-95310000D02*
X106680000Y-95310000D01*
X108010000Y-93980000D02*
X108010000Y-95310000D01*
X108010000Y-92710000D02*
X108010000Y-85030000D01*
X108010000Y-92710000D02*
X105350000Y-92710000D01*
X108010000Y-85030000D02*
X105350000Y-85030000D01*
X105350000Y-92710000D02*
X105350000Y-85030000D01*
%TO.C,J2*%
X148530000Y-72330000D02*
X149860000Y-72330000D01*
X148530000Y-73660000D02*
X148530000Y-72330000D01*
X148530000Y-74930000D02*
X148530000Y-120710000D01*
X148530000Y-74930000D02*
X151190000Y-74930000D01*
X148530000Y-120710000D02*
X151190000Y-120710000D01*
X151190000Y-74930000D02*
X151190000Y-120710000D01*
%TO.C,J1*%
X125670000Y-72330000D02*
X127000000Y-72330000D01*
X125670000Y-73660000D02*
X125670000Y-72330000D01*
X125670000Y-74930000D02*
X125670000Y-120710000D01*
X125670000Y-74930000D02*
X128330000Y-74930000D01*
X125670000Y-120710000D02*
X128330000Y-120710000D01*
X128330000Y-74930000D02*
X128330000Y-120710000D01*
%TO.C,C1*%
X105505000Y-118804569D02*
X105505000Y-117504569D01*
X104855000Y-118154569D02*
X106155000Y-118154569D01*
X102640000Y-111720000D02*
X115800000Y-111720000D01*
X102640000Y-111680000D02*
X115800000Y-111680000D01*
X102640000Y-111640000D02*
X115800000Y-111640000D01*
X102641000Y-111600000D02*
X115799000Y-111600000D01*
X102641000Y-111560000D02*
X115799000Y-111560000D01*
X102643000Y-111520000D02*
X115797000Y-111520000D01*
X102644000Y-111480000D02*
X115796000Y-111480000D01*
X102645000Y-111440000D02*
X115795000Y-111440000D01*
X102647000Y-111400000D02*
X115793000Y-111400000D01*
X102649000Y-111360000D02*
X115791000Y-111360000D01*
X102652000Y-111320000D02*
X115788000Y-111320000D01*
X102654000Y-111280000D02*
X115786000Y-111280000D01*
X102657000Y-111240000D02*
X115783000Y-111240000D01*
X102660000Y-111200000D02*
X115780000Y-111200000D01*
X102663000Y-111160000D02*
X115777000Y-111160000D01*
X102667000Y-111120000D02*
X115773000Y-111120000D01*
X102671000Y-111080000D02*
X115769000Y-111080000D01*
X102675000Y-111040000D02*
X115765000Y-111040000D01*
X102679000Y-110999000D02*
X115761000Y-110999000D01*
X102683000Y-110959000D02*
X115757000Y-110959000D01*
X102688000Y-110919000D02*
X115752000Y-110919000D01*
X102693000Y-110879000D02*
X115747000Y-110879000D01*
X102698000Y-110839000D02*
X115742000Y-110839000D01*
X102704000Y-110799000D02*
X115736000Y-110799000D01*
X102709000Y-110759000D02*
X115731000Y-110759000D01*
X102715000Y-110719000D02*
X115725000Y-110719000D01*
X102722000Y-110679000D02*
X115718000Y-110679000D01*
X102728000Y-110639000D02*
X107780000Y-110639000D01*
X110660000Y-110639000D02*
X115712000Y-110639000D01*
X102735000Y-110599000D02*
X107780000Y-110599000D01*
X110660000Y-110599000D02*
X115705000Y-110599000D01*
X102742000Y-110559000D02*
X107780000Y-110559000D01*
X110660000Y-110559000D02*
X115698000Y-110559000D01*
X102749000Y-110519000D02*
X107780000Y-110519000D01*
X110660000Y-110519000D02*
X115691000Y-110519000D01*
X102757000Y-110479000D02*
X107780000Y-110479000D01*
X110660000Y-110479000D02*
X115683000Y-110479000D01*
X102764000Y-110439000D02*
X107780000Y-110439000D01*
X110660000Y-110439000D02*
X115676000Y-110439000D01*
X102772000Y-110399000D02*
X107780000Y-110399000D01*
X110660000Y-110399000D02*
X115668000Y-110399000D01*
X102781000Y-110359000D02*
X107780000Y-110359000D01*
X110660000Y-110359000D02*
X115659000Y-110359000D01*
X102789000Y-110319000D02*
X107780000Y-110319000D01*
X110660000Y-110319000D02*
X115651000Y-110319000D01*
X102798000Y-110279000D02*
X107780000Y-110279000D01*
X110660000Y-110279000D02*
X115642000Y-110279000D01*
X102807000Y-110239000D02*
X107780000Y-110239000D01*
X110660000Y-110239000D02*
X115633000Y-110239000D01*
X102816000Y-110199000D02*
X107780000Y-110199000D01*
X110660000Y-110199000D02*
X115624000Y-110199000D01*
X102826000Y-110159000D02*
X107780000Y-110159000D01*
X110660000Y-110159000D02*
X115614000Y-110159000D01*
X102836000Y-110119000D02*
X107780000Y-110119000D01*
X110660000Y-110119000D02*
X115604000Y-110119000D01*
X102846000Y-110079000D02*
X107780000Y-110079000D01*
X110660000Y-110079000D02*
X115594000Y-110079000D01*
X102856000Y-110039000D02*
X107780000Y-110039000D01*
X110660000Y-110039000D02*
X115584000Y-110039000D01*
X102867000Y-109999000D02*
X107780000Y-109999000D01*
X110660000Y-109999000D02*
X115573000Y-109999000D01*
X102878000Y-109959000D02*
X107780000Y-109959000D01*
X110660000Y-109959000D02*
X115562000Y-109959000D01*
X102889000Y-109919000D02*
X107780000Y-109919000D01*
X110660000Y-109919000D02*
X115551000Y-109919000D01*
X102900000Y-109879000D02*
X107780000Y-109879000D01*
X110660000Y-109879000D02*
X115540000Y-109879000D01*
X102912000Y-109839000D02*
X107780000Y-109839000D01*
X110660000Y-109839000D02*
X115528000Y-109839000D01*
X102924000Y-109799000D02*
X107780000Y-109799000D01*
X110660000Y-109799000D02*
X115516000Y-109799000D01*
X102936000Y-109759000D02*
X107780000Y-109759000D01*
X110660000Y-109759000D02*
X115504000Y-109759000D01*
X102949000Y-109719000D02*
X107780000Y-109719000D01*
X110660000Y-109719000D02*
X115491000Y-109719000D01*
X102962000Y-109679000D02*
X107780000Y-109679000D01*
X110660000Y-109679000D02*
X115478000Y-109679000D01*
X102975000Y-109639000D02*
X107780000Y-109639000D01*
X110660000Y-109639000D02*
X115465000Y-109639000D01*
X102988000Y-109599000D02*
X107780000Y-109599000D01*
X110660000Y-109599000D02*
X115452000Y-109599000D01*
X103002000Y-109559000D02*
X107780000Y-109559000D01*
X110660000Y-109559000D02*
X115438000Y-109559000D01*
X103016000Y-109519000D02*
X107780000Y-109519000D01*
X110660000Y-109519000D02*
X115424000Y-109519000D01*
X103030000Y-109479000D02*
X107780000Y-109479000D01*
X110660000Y-109479000D02*
X115410000Y-109479000D01*
X103045000Y-109439000D02*
X107780000Y-109439000D01*
X110660000Y-109439000D02*
X115395000Y-109439000D01*
X103059000Y-109399000D02*
X107780000Y-109399000D01*
X110660000Y-109399000D02*
X115381000Y-109399000D01*
X103074000Y-109359000D02*
X107780000Y-109359000D01*
X110660000Y-109359000D02*
X115366000Y-109359000D01*
X103090000Y-109319000D02*
X107780000Y-109319000D01*
X110660000Y-109319000D02*
X115350000Y-109319000D01*
X103106000Y-109279000D02*
X107780000Y-109279000D01*
X110660000Y-109279000D02*
X115334000Y-109279000D01*
X103122000Y-109239000D02*
X107780000Y-109239000D01*
X110660000Y-109239000D02*
X115318000Y-109239000D01*
X103138000Y-109199000D02*
X107780000Y-109199000D01*
X110660000Y-109199000D02*
X115302000Y-109199000D01*
X103155000Y-109159000D02*
X107780000Y-109159000D01*
X110660000Y-109159000D02*
X115285000Y-109159000D01*
X103171000Y-109119000D02*
X107780000Y-109119000D01*
X110660000Y-109119000D02*
X115269000Y-109119000D01*
X103189000Y-109079000D02*
X107780000Y-109079000D01*
X110660000Y-109079000D02*
X115251000Y-109079000D01*
X103206000Y-109039000D02*
X107780000Y-109039000D01*
X110660000Y-109039000D02*
X115234000Y-109039000D01*
X103224000Y-108999000D02*
X107780000Y-108999000D01*
X110660000Y-108999000D02*
X115216000Y-108999000D01*
X103242000Y-108959000D02*
X107780000Y-108959000D01*
X110660000Y-108959000D02*
X115198000Y-108959000D01*
X103261000Y-108919000D02*
X107780000Y-108919000D01*
X110660000Y-108919000D02*
X115179000Y-108919000D01*
X103280000Y-108879000D02*
X107780000Y-108879000D01*
X110660000Y-108879000D02*
X115160000Y-108879000D01*
X103299000Y-108839000D02*
X107780000Y-108839000D01*
X110660000Y-108839000D02*
X115141000Y-108839000D01*
X103318000Y-108799000D02*
X107780000Y-108799000D01*
X110660000Y-108799000D02*
X115122000Y-108799000D01*
X103338000Y-108759000D02*
X107780000Y-108759000D01*
X110660000Y-108759000D02*
X115102000Y-108759000D01*
X103358000Y-108719000D02*
X107780000Y-108719000D01*
X110660000Y-108719000D02*
X115082000Y-108719000D01*
X103379000Y-108679000D02*
X107780000Y-108679000D01*
X110660000Y-108679000D02*
X115061000Y-108679000D01*
X103400000Y-108639000D02*
X107780000Y-108639000D01*
X110660000Y-108639000D02*
X115040000Y-108639000D01*
X103421000Y-108599000D02*
X107780000Y-108599000D01*
X110660000Y-108599000D02*
X115019000Y-108599000D01*
X103442000Y-108559000D02*
X107780000Y-108559000D01*
X110660000Y-108559000D02*
X114998000Y-108559000D01*
X103464000Y-108519000D02*
X107780000Y-108519000D01*
X110660000Y-108519000D02*
X114976000Y-108519000D01*
X103487000Y-108479000D02*
X107780000Y-108479000D01*
X110660000Y-108479000D02*
X114953000Y-108479000D01*
X103509000Y-108439000D02*
X107780000Y-108439000D01*
X110660000Y-108439000D02*
X114931000Y-108439000D01*
X103532000Y-108399000D02*
X107780000Y-108399000D01*
X110660000Y-108399000D02*
X114908000Y-108399000D01*
X103556000Y-108359000D02*
X107780000Y-108359000D01*
X110660000Y-108359000D02*
X114884000Y-108359000D01*
X103579000Y-108319000D02*
X107780000Y-108319000D01*
X110660000Y-108319000D02*
X114861000Y-108319000D01*
X103603000Y-108279000D02*
X107780000Y-108279000D01*
X110660000Y-108279000D02*
X114837000Y-108279000D01*
X103628000Y-108239000D02*
X107780000Y-108239000D01*
X110660000Y-108239000D02*
X114812000Y-108239000D01*
X103653000Y-108199000D02*
X107780000Y-108199000D01*
X110660000Y-108199000D02*
X114787000Y-108199000D01*
X103678000Y-108159000D02*
X107780000Y-108159000D01*
X110660000Y-108159000D02*
X114762000Y-108159000D01*
X103704000Y-108119000D02*
X107780000Y-108119000D01*
X110660000Y-108119000D02*
X114736000Y-108119000D01*
X103730000Y-108079000D02*
X107780000Y-108079000D01*
X110660000Y-108079000D02*
X114710000Y-108079000D01*
X103757000Y-108039000D02*
X107780000Y-108039000D01*
X110660000Y-108039000D02*
X114683000Y-108039000D01*
X103784000Y-107999000D02*
X107780000Y-107999000D01*
X110660000Y-107999000D02*
X114656000Y-107999000D01*
X103811000Y-107959000D02*
X107780000Y-107959000D01*
X110660000Y-107959000D02*
X114629000Y-107959000D01*
X103839000Y-107919000D02*
X107780000Y-107919000D01*
X110660000Y-107919000D02*
X114601000Y-107919000D01*
X103867000Y-107879000D02*
X107780000Y-107879000D01*
X110660000Y-107879000D02*
X114573000Y-107879000D01*
X103896000Y-107839000D02*
X107780000Y-107839000D01*
X110660000Y-107839000D02*
X114544000Y-107839000D01*
X103925000Y-107799000D02*
X107780000Y-107799000D01*
X110660000Y-107799000D02*
X114515000Y-107799000D01*
X103955000Y-107759000D02*
X114485000Y-107759000D01*
X103985000Y-107719000D02*
X114455000Y-107719000D01*
X104015000Y-107679000D02*
X114425000Y-107679000D01*
X104046000Y-107639000D02*
X114394000Y-107639000D01*
X104078000Y-107599000D02*
X114362000Y-107599000D01*
X104110000Y-107559000D02*
X114330000Y-107559000D01*
X104142000Y-107519000D02*
X114298000Y-107519000D01*
X104176000Y-107479000D02*
X114264000Y-107479000D01*
X104209000Y-107439000D02*
X114231000Y-107439000D01*
X104243000Y-107399000D02*
X114197000Y-107399000D01*
X104278000Y-107359000D02*
X114162000Y-107359000D01*
X104313000Y-107319000D02*
X114127000Y-107319000D01*
X104349000Y-107279000D02*
X114091000Y-107279000D01*
X104386000Y-107239000D02*
X114054000Y-107239000D01*
X104423000Y-107199000D02*
X114017000Y-107199000D01*
X104460000Y-107159000D02*
X113980000Y-107159000D01*
X104499000Y-107119000D02*
X113941000Y-107119000D01*
X104538000Y-107079000D02*
X113902000Y-107079000D01*
X104577000Y-107039000D02*
X113863000Y-107039000D01*
X104618000Y-106999000D02*
X113822000Y-106999000D01*
X104659000Y-106959000D02*
X113781000Y-106959000D01*
X104701000Y-106919000D02*
X113739000Y-106919000D01*
X104743000Y-106879000D02*
X113697000Y-106879000D01*
X104786000Y-106839000D02*
X113654000Y-106839000D01*
X104830000Y-106799000D02*
X113610000Y-106799000D01*
X104875000Y-106759000D02*
X113565000Y-106759000D01*
X104921000Y-106719000D02*
X113519000Y-106719000D01*
X104967000Y-106679000D02*
X113473000Y-106679000D01*
X105015000Y-106639000D02*
X113425000Y-106639000D01*
X105063000Y-106599000D02*
X113377000Y-106599000D01*
X105112000Y-106559000D02*
X113328000Y-106559000D01*
X105163000Y-106519000D02*
X113277000Y-106519000D01*
X105214000Y-106479000D02*
X113226000Y-106479000D01*
X105266000Y-106439000D02*
X113174000Y-106439000D01*
X105320000Y-106399000D02*
X113120000Y-106399000D01*
X105374000Y-106359000D02*
X113066000Y-106359000D01*
X105430000Y-106319000D02*
X113010000Y-106319000D01*
X105487000Y-106279000D02*
X112953000Y-106279000D01*
X105545000Y-106239000D02*
X112895000Y-106239000D01*
X105605000Y-106199000D02*
X112835000Y-106199000D01*
X105666000Y-106159000D02*
X112774000Y-106159000D01*
X105729000Y-106119000D02*
X112711000Y-106119000D01*
X105793000Y-106079000D02*
X112647000Y-106079000D01*
X105859000Y-106039000D02*
X112581000Y-106039000D01*
X105927000Y-105999000D02*
X112513000Y-105999000D01*
X105997000Y-105959000D02*
X112443000Y-105959000D01*
X106068000Y-105919000D02*
X112372000Y-105919000D01*
X106142000Y-105879000D02*
X112298000Y-105879000D01*
X106218000Y-105839000D02*
X112222000Y-105839000D01*
X106297000Y-105799000D02*
X112143000Y-105799000D01*
X106378000Y-105759000D02*
X112062000Y-105759000D01*
X106462000Y-105719000D02*
X111978000Y-105719000D01*
X106550000Y-105679000D02*
X111890000Y-105679000D01*
X106641000Y-105639000D02*
X111799000Y-105639000D01*
X106736000Y-105599000D02*
X111704000Y-105599000D01*
X106835000Y-105559000D02*
X111605000Y-105559000D01*
X106939000Y-105519000D02*
X111501000Y-105519000D01*
X107049000Y-105479000D02*
X111391000Y-105479000D01*
X107165000Y-105439000D02*
X111275000Y-105439000D01*
X107289000Y-105399000D02*
X111151000Y-105399000D01*
X107422000Y-105359000D02*
X111018000Y-105359000D01*
X107567000Y-105319000D02*
X110873000Y-105319000D01*
X107726000Y-105279000D02*
X110714000Y-105279000D01*
X107905000Y-105239000D02*
X110535000Y-105239000D01*
X108113000Y-105199000D02*
X110327000Y-105199000D01*
X108370000Y-105159000D02*
X110070000Y-105159000D01*
X108745000Y-105119000D02*
X109695000Y-105119000D01*
X115840000Y-111720000D02*
G75*
G03*
X115840000Y-111720000I-6620000J0D01*
G01*
%TO.C,F1*%
X97230000Y-140110000D02*
X97230000Y-144350000D01*
X97230000Y-140110000D02*
X105970000Y-140110000D01*
X105970000Y-144350000D02*
X97230000Y-144350000D01*
X105970000Y-144350000D02*
X105970000Y-140110000D01*
%TO.C,J3*%
X100390000Y-95310000D02*
X99060000Y-95310000D01*
X100390000Y-93980000D02*
X100390000Y-95310000D01*
X100390000Y-92710000D02*
X100390000Y-85030000D01*
X100390000Y-92710000D02*
X97730000Y-92710000D01*
X100390000Y-85030000D02*
X97730000Y-85030000D01*
X97730000Y-92710000D02*
X97730000Y-85030000D01*
%TO.C,PS1*%
X122347500Y-133660000D02*
X122347500Y-135670000D01*
X122737500Y-127060000D02*
X122737500Y-147260000D01*
X122737500Y-147260000D02*
X156937500Y-147260000D01*
X156937500Y-127060000D02*
X122737500Y-127060000D01*
X156937500Y-147260000D02*
X156937500Y-127060000D01*
%TD*%
M02*
